<svg width="309" height="129" viewBox="0 0 309 129" fill="none" xmlns="http://www.w3.org/2000/svg">
<path d="M254 101V38" stroke="black" stroke-width="6"/>
<path d="M252.044 19.6244L247.318 22.371L247.017 22.5745C246.212 22.9814 246.011 23.6935 246.011 23.9987V30.7127C245.931 31.6079 246.313 32.1708 246.514 32.3403L252.245 35.5956C253.211 36.328 254.324 35.9008 254.759 35.5956L260.089 32.5438C260.732 32.2182 260.96 31.5943 260.994 31.323V23.9987C261.074 23.3476 260.357 22.778 259.988 22.5745L254.458 19.3192C253.754 18.8106 253.117 19.014 252.748 19.2175L252.044 19.6244Z" fill="#0396D9"/>
<path d="M79.634 22.0778L36.8151 21.9037L14.9223 61.4247L37.1361 98.7949L79.979 98.986" stroke="black" stroke-width="6"/>
<path d="M96.3659 57H151.866" stroke="#0191E0" stroke-width="6"/>
<path d="M29.3814 59.7402L41.8512 36.9915" stroke="black" stroke-width="5"/>
<path d="M96.3659 66H151.866" stroke="#0191E0" stroke-width="6"/>
<path d="M178 65H233.5" stroke="black" stroke-width="6"/>
<path d="M89.3659 19V101" stroke="#0191E0" stroke-width="6"/>
<path d="M158.366 19V101" stroke="#0191E0" stroke-width="6"/>
<path d="M171 101V42.7375L204.759 22L241 40.2688V101" stroke="black" stroke-width="6"/>
<path d="M22.3771 124.18C21.2731 124.18 20.3131 123.916 19.4971 123.388C18.6811 122.86 18.0511 122.11 17.6071 121.138C17.1631 120.166 16.9411 119.02 16.9411 117.7C16.9411 116.38 17.1631 115.234 17.6071 114.262C18.0631 113.29 18.7051 112.54 19.5331 112.012C20.3611 111.484 21.3331 111.22 22.4491 111.22C23.3371 111.22 24.1291 111.394 24.8251 111.742C25.5211 112.09 26.0371 112.57 26.3731 113.182L25.4371 114.1C24.7771 113.092 23.7871 112.588 22.4671 112.588C21.2551 112.588 20.3071 113.038 19.6231 113.938C18.9511 114.826 18.6151 116.08 18.6151 117.7C18.6151 119.308 18.9451 120.562 19.6051 121.462C20.2771 122.362 21.2011 122.812 22.3771 122.812C23.0971 122.812 23.7031 122.692 24.1951 122.452C24.6991 122.2 25.1131 121.816 25.4371 121.3L26.3731 122.218C26.0251 122.842 25.5031 123.328 24.8071 123.676C24.1111 124.012 23.3011 124.18 22.3771 124.18ZM27.9564 110.644H29.4864V116.404C29.7624 115.912 30.1644 115.528 30.6924 115.252C31.2324 114.964 31.8324 114.82 32.4924 114.82C33.5484 114.82 34.3644 115.174 34.9404 115.882C35.5164 116.578 35.8044 117.568 35.8044 118.852V124H34.2744V118.834C34.2744 117.91 34.0944 117.208 33.7344 116.728C33.3864 116.236 32.8824 115.99 32.2224 115.99C31.7064 115.99 31.2384 116.122 30.8184 116.386C30.3984 116.65 30.0684 117.022 29.8284 117.502C29.6004 117.97 29.4864 118.498 29.4864 119.086V124H27.9564V110.644ZM45.5715 120.094H39.0915C39.1755 121.006 39.4455 121.702 39.9015 122.182C40.3575 122.65 40.9875 122.884 41.7915 122.884C42.8715 122.884 43.7295 122.458 44.3655 121.606L45.2295 122.434C44.8815 122.986 44.3955 123.418 43.7715 123.73C43.1595 124.03 42.4815 124.18 41.7375 124.18C40.4055 124.18 39.3735 123.772 38.6415 122.956C37.9095 122.14 37.5435 120.994 37.5435 119.518C37.5435 118.054 37.9095 116.908 38.6415 116.08C39.3855 115.24 40.4055 114.82 41.7015 114.82C42.9135 114.82 43.8615 115.234 44.5455 116.062C45.2295 116.878 45.5715 118.024 45.5715 119.5V120.094ZM44.1675 118.834C44.1675 117.97 43.9395 117.292 43.4835 116.8C43.0395 116.308 42.4215 116.062 41.6295 116.062C40.8855 116.062 40.2915 116.314 39.8475 116.818C39.4155 117.322 39.1635 118.036 39.0915 118.96H44.1675V118.834ZM47.3099 117.268C47.3099 116.356 47.2799 115.6 47.2199 115H48.5879C48.6359 115.48 48.6599 116.014 48.6599 116.602H48.7139C48.9539 116.05 49.3319 115.618 49.8479 115.306C50.3639 114.982 50.9399 114.82 51.5759 114.82C52.2119 114.82 52.7579 114.982 53.2139 115.306C53.6699 115.63 53.9759 116.08 54.1319 116.656C54.3839 116.092 54.7679 115.648 55.2839 115.324C55.7999 114.988 56.3819 114.82 57.0299 114.82C58.0139 114.82 58.7819 115.138 59.3339 115.774C59.8979 116.41 60.1799 117.298 60.1799 118.438V124H58.6679V118.564C58.6679 117.748 58.4939 117.124 58.1459 116.692C57.8099 116.26 57.3179 116.044 56.6699 116.044C56.0339 116.044 55.5119 116.284 55.1039 116.764C54.6959 117.232 54.4919 117.838 54.4919 118.582V124H52.9799V118.636C52.9799 117.76 52.8239 117.112 52.5119 116.692C52.1999 116.26 51.7259 116.044 51.0899 116.044C50.6939 116.044 50.3219 116.164 49.9739 116.404C49.6259 116.644 49.3439 116.962 49.1279 117.358C48.9239 117.754 48.8219 118.18 48.8219 118.636V124H47.3099V117.268ZM63.5075 113.434C63.1715 113.434 62.9075 113.344 62.7155 113.164C62.5235 112.984 62.4275 112.738 62.4275 112.426C62.4275 112.114 62.5235 111.868 62.7155 111.688C62.9075 111.496 63.1715 111.4 63.5075 111.4C63.8435 111.4 64.1075 111.496 64.2995 111.688C64.5035 111.868 64.6055 112.114 64.6055 112.426C64.6055 112.738 64.5035 112.984 64.2995 113.164C64.1075 113.344 63.8435 113.434 63.5075 113.434ZM62.7515 115H64.2815V124H62.7515V115ZM69.3236 124.18C68.6516 124.18 68.0396 124.042 67.4876 123.766C66.9476 123.49 66.5636 123.124 66.3356 122.668L67.3256 121.984C67.5296 122.308 67.8116 122.56 68.1716 122.74C68.5316 122.92 68.9216 123.01 69.3416 123.01C69.8456 123.01 70.2596 122.866 70.5836 122.578C70.9196 122.278 71.0876 121.906 71.0876 121.462C71.0876 121.102 70.9556 120.802 70.6916 120.562C70.4276 120.322 69.9596 120.076 69.2876 119.824C68.2676 119.452 67.5476 119.062 67.1276 118.654C66.7196 118.246 66.5156 117.742 66.5156 117.142C66.5156 116.446 66.7916 115.888 67.3436 115.468C67.8956 115.036 68.6276 114.82 69.5396 114.82C70.1276 114.82 70.6616 114.946 71.1416 115.198C71.6336 115.45 72.0116 115.798 72.2756 116.242L71.3396 116.926C70.9196 116.302 70.3196 115.99 69.5396 115.99C69.0956 115.99 68.7296 116.092 68.4416 116.296C68.1656 116.5 68.0276 116.764 68.0276 117.088C68.0276 117.412 68.1716 117.688 68.4596 117.916C68.7476 118.132 69.2816 118.39 70.0616 118.69C70.9856 119.038 71.6396 119.422 72.0236 119.842C72.4076 120.25 72.5996 120.772 72.5996 121.408C72.5996 122.248 72.2996 122.92 71.6996 123.424C71.0996 123.928 70.3076 124.18 69.3236 124.18ZM77.5679 124.18C76.7759 124.18 76.1519 123.928 75.6959 123.424C75.2399 122.908 75.0119 122.2 75.0119 121.3V116.188H73.3919V115H75.0119V112.606L76.4699 112.156H76.5419V115H79.0979V116.188H76.5419V121.156C76.5419 121.768 76.6559 122.224 76.8839 122.524C77.1119 122.812 77.4659 122.956 77.9459 122.956C78.4619 122.956 78.8819 122.89 79.2059 122.758L79.3139 123.892C78.9179 124.084 78.3359 124.18 77.5679 124.18ZM81.2031 117.196C81.2031 116.176 81.1851 115.444 81.1491 115H82.5711C82.6191 115.48 82.6431 116.008 82.6431 116.584V116.764H82.6971C82.9251 116.14 83.2911 115.66 83.7951 115.324C84.2991 114.988 84.8931 114.82 85.5771 114.82C85.7691 114.82 85.9431 114.838 86.0991 114.874V116.134C85.9431 116.098 85.7331 116.08 85.4691 116.08C84.9651 116.08 84.5031 116.236 84.0831 116.548C83.6631 116.848 83.3331 117.262 83.0931 117.79C82.8531 118.318 82.7331 118.894 82.7331 119.518V124H81.2031V117.196ZM94.4081 115L91.1501 124.162C90.3221 126.478 89.0441 127.636 87.3161 127.636C87.0041 127.636 86.6681 127.594 86.3081 127.51V126.34C86.5241 126.412 86.7881 126.448 87.1001 126.448C87.7121 126.448 88.2341 126.226 88.6661 125.782C89.0981 125.338 89.5121 124.588 89.9081 123.532L86.5601 115H88.1981L90.6101 121.894L92.7521 115H94.4081ZM110.807 115L108.557 124H107.171L104.993 116.638L102.815 124H101.429L99.1795 115H100.781L102.239 121.912L104.291 115H105.695L107.747 121.912L109.205 115H110.807ZM113.201 113.434C112.865 113.434 112.601 113.344 112.409 113.164C112.217 112.984 112.121 112.738 112.121 112.426C112.121 112.114 112.217 111.868 112.409 111.688C112.601 111.496 112.865 111.4 113.201 111.4C113.537 111.4 113.801 111.496 113.993 111.688C114.197 111.868 114.299 112.114 114.299 112.426C114.299 112.738 114.197 112.984 113.993 113.164C113.801 113.344 113.537 113.434 113.201 113.434ZM112.445 115H113.975V124H112.445V115ZM119.773 124.18C118.981 124.18 118.357 123.928 117.901 123.424C117.445 122.908 117.217 122.2 117.217 121.3V116.188H115.597V115H117.217V112.606L118.675 112.156H118.747V115H121.303V116.188H118.747V121.156C118.747 121.768 118.861 122.224 119.089 122.524C119.317 122.812 119.671 122.956 120.151 122.956C120.667 122.956 121.087 122.89 121.411 122.758L121.519 123.892C121.123 124.084 120.541 124.18 119.773 124.18ZM123.3 110.644H124.83V116.404C125.106 115.912 125.508 115.528 126.036 115.252C126.576 114.964 127.176 114.82 127.836 114.82C128.892 114.82 129.708 115.174 130.284 115.882C130.86 116.578 131.148 117.568 131.148 118.852V124H129.618V118.834C129.618 117.91 129.438 117.208 129.078 116.728C128.73 116.236 128.226 115.99 127.566 115.99C127.05 115.99 126.582 116.122 126.162 116.386C125.742 116.65 125.412 117.022 125.172 117.502C124.944 117.97 124.83 118.498 124.83 119.086V124H123.3V110.644ZM144.428 121.282H139.532L138.686 124H136.922L141.206 111.4H142.754L147.038 124H145.274L144.428 121.282ZM143.996 119.932L141.98 113.47L139.964 119.932H143.996ZM148.545 117.196C148.545 116.176 148.527 115.444 148.491 115H149.913C149.961 115.48 149.985 116.008 149.985 116.584V116.764H150.039C150.267 116.14 150.633 115.66 151.137 115.324C151.641 114.988 152.235 114.82 152.919 114.82C153.111 114.82 153.285 114.838 153.441 114.874V116.134C153.285 116.098 153.075 116.08 152.811 116.08C152.307 116.08 151.845 116.236 151.425 116.548C151.005 116.848 150.675 117.262 150.435 117.79C150.195 118.318 150.075 118.894 150.075 119.518V124H148.545V117.196ZM157.988 124.18C157.196 124.18 156.572 123.928 156.116 123.424C155.66 122.908 155.432 122.2 155.432 121.3V116.188H153.812V115H155.432V112.606L156.89 112.156H156.962V115H159.518V116.188H156.962V121.156C156.962 121.768 157.076 122.224 157.304 122.524C157.532 122.812 157.886 122.956 158.366 122.956C158.882 122.956 159.302 122.89 159.626 122.758L159.734 123.892C159.338 124.084 158.756 124.18 157.988 124.18ZM162.613 113.434C162.277 113.434 162.013 113.344 161.821 113.164C161.629 112.984 161.533 112.738 161.533 112.426C161.533 112.114 161.629 111.868 161.821 111.688C162.013 111.496 162.277 111.4 162.613 111.4C162.949 111.4 163.213 111.496 163.405 111.688C163.609 111.868 163.711 112.114 163.711 112.426C163.711 112.738 163.609 112.984 163.405 113.164C163.213 113.344 162.949 113.434 162.613 113.434ZM161.857 115H163.387V124H161.857V115ZM166.467 116.116H164.973V115H166.467V113.866C166.467 113.014 166.719 112.342 167.223 111.85C167.739 111.346 168.435 111.094 169.311 111.094C169.671 111.094 170.007 111.154 170.319 111.274C170.643 111.382 170.901 111.532 171.093 111.724L170.535 112.678C170.235 112.414 169.857 112.282 169.401 112.282C168.969 112.282 168.627 112.426 168.375 112.714C168.123 113.002 167.997 113.398 167.997 113.902V115H170.571V116.116H167.997V124H166.467V116.116ZM172.893 113.434C172.557 113.434 172.293 113.344 172.101 113.164C171.909 112.984 171.813 112.738 171.813 112.426C171.813 112.114 171.909 111.868 172.101 111.688C172.293 111.496 172.557 111.4 172.893 111.4C173.229 111.4 173.493 111.496 173.685 111.688C173.889 111.868 173.991 112.114 173.991 112.426C173.991 112.738 173.889 112.984 173.685 113.164C173.493 113.344 173.229 113.434 172.893 113.434ZM172.137 115H173.667V124H172.137V115ZM179.831 124.18C178.499 124.18 177.461 123.772 176.717 122.956C175.985 122.128 175.619 120.976 175.619 119.5C175.619 118.024 175.985 116.878 176.717 116.062C177.461 115.234 178.499 114.82 179.831 114.82C180.587 114.82 181.253 114.97 181.829 115.27C182.417 115.558 182.879 115.978 183.215 116.53L182.297 117.358C182.033 116.95 181.685 116.632 181.253 116.404C180.833 116.164 180.377 116.044 179.885 116.044C179.033 116.044 178.361 116.35 177.869 116.962C177.389 117.562 177.149 118.408 177.149 119.5C177.149 120.58 177.389 121.426 177.869 122.038C178.361 122.65 179.033 122.956 179.885 122.956C180.377 122.956 180.833 122.842 181.253 122.614C181.685 122.374 182.033 122.05 182.297 121.642L183.215 122.47C182.879 123.022 182.417 123.448 181.829 123.748C181.253 124.036 180.587 124.18 179.831 124.18ZM185.711 113.434C185.375 113.434 185.111 113.344 184.919 113.164C184.727 112.984 184.631 112.738 184.631 112.426C184.631 112.114 184.727 111.868 184.919 111.688C185.111 111.496 185.375 111.4 185.711 111.4C186.047 111.4 186.311 111.496 186.503 111.688C186.707 111.868 186.809 112.114 186.809 112.426C186.809 112.738 186.707 112.984 186.503 113.164C186.311 113.344 186.047 113.434 185.711 113.434ZM184.955 115H186.485V124H184.955V115ZM191.671 124.18C190.783 124.18 190.057 123.922 189.493 123.406C188.929 122.89 188.647 122.224 188.647 121.408C188.647 120.508 188.983 119.812 189.655 119.32C190.339 118.828 191.305 118.582 192.553 118.582H194.407V118.114C194.407 117.442 194.227 116.932 193.867 116.584C193.519 116.224 193.009 116.044 192.337 116.044C191.797 116.044 191.299 116.158 190.843 116.386C190.399 116.602 190.027 116.92 189.727 117.34L188.953 116.404C189.361 115.888 189.859 115.498 190.447 115.234C191.035 114.958 191.689 114.82 192.409 114.82C193.537 114.82 194.407 115.096 195.019 115.648C195.631 116.2 195.937 116.992 195.937 118.024V122.254C195.937 122.722 196.009 123.304 196.153 124H194.821C194.713 123.724 194.635 123.304 194.587 122.74H194.551C194.215 123.208 193.801 123.568 193.309 123.82C192.817 124.06 192.271 124.18 191.671 124.18ZM191.905 122.974C192.361 122.974 192.781 122.89 193.165 122.722C193.549 122.542 193.849 122.302 194.065 122.002C194.293 121.702 194.407 121.372 194.407 121.012V119.68H192.499C191.743 119.68 191.161 119.83 190.753 120.13C190.345 120.43 190.141 120.856 190.141 121.408C190.141 121.888 190.297 122.272 190.609 122.56C190.933 122.836 191.365 122.974 191.905 122.974ZM200.377 124.18C199.081 124.18 198.433 123.418 198.433 121.894V110.644H199.963V121.876C199.963 122.296 200.029 122.596 200.161 122.776C200.305 122.944 200.545 123.028 200.881 123.028C201.145 123.028 201.445 122.956 201.781 122.812L202.015 123.73C201.559 124.03 201.013 124.18 200.377 124.18ZM208.588 111.4H210.244V124H208.588V111.4ZM213.124 117.268C213.124 116.128 213.1 115.372 213.052 115H214.474C214.522 115.396 214.546 115.93 214.546 116.602H214.6C214.864 116.05 215.266 115.618 215.806 115.306C216.358 114.982 216.97 114.82 217.642 114.82C218.698 114.82 219.49 115.162 220.018 115.846C220.546 116.53 220.81 117.55 220.81 118.906V124H219.28V118.888C219.28 117.928 219.118 117.214 218.794 116.746C218.47 116.278 217.978 116.044 217.318 116.044C216.814 116.044 216.358 116.176 215.95 116.44C215.542 116.692 215.224 117.052 214.996 117.52C214.768 117.976 214.654 118.492 214.654 119.068V124H213.124V117.268ZM226.279 124.18C225.487 124.18 224.863 123.928 224.407 123.424C223.951 122.908 223.723 122.2 223.723 121.3V116.188H222.103V115H223.723V112.606L225.181 112.156H225.253V115H227.809V116.188H225.253V121.156C225.253 121.768 225.367 122.224 225.595 122.524C225.823 122.812 226.177 122.956 226.657 122.956C227.173 122.956 227.593 122.89 227.917 122.758L228.025 123.892C227.629 124.084 227.047 124.18 226.279 124.18ZM237.384 120.094H230.904C230.988 121.006 231.258 121.702 231.714 122.182C232.17 122.65 232.8 122.884 233.604 122.884C234.684 122.884 235.542 122.458 236.178 121.606L237.042 122.434C236.694 122.986 236.208 123.418 235.584 123.73C234.972 124.03 234.294 124.18 233.55 124.18C232.218 124.18 231.186 123.772 230.454 122.956C229.722 122.14 229.356 120.994 229.356 119.518C229.356 118.054 229.722 116.908 230.454 116.08C231.198 115.24 232.218 114.82 233.514 114.82C234.726 114.82 235.674 115.234 236.358 116.062C237.042 116.878 237.384 118.024 237.384 119.5V120.094ZM235.98 118.834C235.98 117.97 235.752 117.292 235.296 116.8C234.852 116.308 234.234 116.062 233.442 116.062C232.698 116.062 232.104 116.314 231.66 116.818C231.228 117.322 230.976 118.036 230.904 118.96H235.98V118.834ZM241.228 124.18C239.932 124.18 239.284 123.418 239.284 121.894V110.644H240.814V121.876C240.814 122.296 240.88 122.596 241.012 122.776C241.156 122.944 241.396 123.028 241.732 123.028C241.996 123.028 242.296 122.956 242.632 122.812L242.866 123.73C242.41 124.03 241.864 124.18 241.228 124.18ZM246.467 124.18C245.171 124.18 244.523 123.418 244.523 121.894V110.644H246.053V121.876C246.053 122.296 246.119 122.596 246.251 122.776C246.395 122.944 246.635 123.028 246.971 123.028C247.235 123.028 247.535 122.956 247.871 122.812L248.105 123.73C247.649 124.03 247.103 124.18 246.467 124.18ZM250.697 113.434C250.361 113.434 250.097 113.344 249.905 113.164C249.713 112.984 249.617 112.738 249.617 112.426C249.617 112.114 249.713 111.868 249.905 111.688C250.097 111.496 250.361 111.4 250.697 111.4C251.033 111.4 251.297 111.496 251.489 111.688C251.693 111.868 251.795 112.114 251.795 112.426C251.795 112.738 251.693 112.984 251.489 113.164C251.297 113.344 251.033 113.434 250.697 113.434ZM249.941 115H251.471V124H249.941V115ZM261.553 115V123.712C261.553 125.152 261.199 126.244 260.491 126.988C259.783 127.732 258.745 128.104 257.377 128.104C256.777 128.104 256.189 128.032 255.613 127.888C255.049 127.744 254.539 127.54 254.083 127.276L254.587 126.16C255.487 126.592 256.399 126.808 257.323 126.808C259.195 126.808 260.131 125.698 260.131 123.478V122.65C259.891 123.106 259.525 123.466 259.033 123.73C258.541 123.994 257.983 124.126 257.359 124.126C256.171 124.126 255.235 123.7 254.551 122.848C253.867 121.996 253.525 120.832 253.525 119.356C253.525 117.94 253.861 116.83 254.533 116.026C255.205 115.222 256.129 114.82 257.305 114.82C257.929 114.82 258.475 114.946 258.943 115.198C259.423 115.45 259.801 115.816 260.077 116.296H260.113L260.293 115H261.553ZM260.023 118.906C260.023 117.994 259.807 117.28 259.375 116.764C258.943 116.248 258.343 115.99 257.575 115.99C256.795 115.99 256.177 116.296 255.721 116.908C255.277 117.508 255.055 118.336 255.055 119.392C255.055 120.496 255.277 121.36 255.721 121.984C256.165 122.596 256.783 122.902 257.575 122.902C258.343 122.902 258.943 122.674 259.375 122.218C259.807 121.75 260.023 121.102 260.023 120.274V118.906ZM271.327 120.094H264.847C264.931 121.006 265.201 121.702 265.657 122.182C266.113 122.65 266.743 122.884 267.547 122.884C268.627 122.884 269.485 122.458 270.121 121.606L270.985 122.434C270.637 122.986 270.151 123.418 269.527 123.73C268.915 124.03 268.237 124.18 267.493 124.18C266.161 124.18 265.129 123.772 264.397 122.956C263.665 122.14 263.299 120.994 263.299 119.518C263.299 118.054 263.665 116.908 264.397 116.08C265.141 115.24 266.161 114.82 267.457 114.82C268.669 114.82 269.617 115.234 270.301 116.062C270.985 116.878 271.327 118.024 271.327 119.5V120.094ZM269.923 118.834C269.923 117.97 269.695 117.292 269.239 116.8C268.795 116.308 268.177 116.062 267.385 116.062C266.641 116.062 266.047 116.314 265.603 116.818C265.171 117.322 264.919 118.036 264.847 118.96H269.923V118.834ZM273.048 117.268C273.048 116.128 273.024 115.372 272.976 115H274.398C274.446 115.396 274.47 115.93 274.47 116.602H274.524C274.788 116.05 275.19 115.618 275.73 115.306C276.282 114.982 276.894 114.82 277.566 114.82C278.622 114.82 279.414 115.162 279.942 115.846C280.47 116.53 280.734 117.55 280.734 118.906V124H279.204V118.888C279.204 117.928 279.042 117.214 278.718 116.746C278.394 116.278 277.902 116.044 277.242 116.044C276.738 116.044 276.282 116.176 275.874 116.44C275.466 116.692 275.148 117.052 274.92 117.52C274.692 117.976 274.578 118.492 274.578 119.068V124H273.048V117.268ZM286.671 124.18C285.339 124.18 284.301 123.772 283.557 122.956C282.825 122.128 282.459 120.976 282.459 119.5C282.459 118.024 282.825 116.878 283.557 116.062C284.301 115.234 285.339 114.82 286.671 114.82C287.427 114.82 288.093 114.97 288.669 115.27C289.257 115.558 289.719 115.978 290.055 116.53L289.137 117.358C288.873 116.95 288.525 116.632 288.093 116.404C287.673 116.164 287.217 116.044 286.725 116.044C285.873 116.044 285.201 116.35 284.709 116.962C284.229 117.562 283.989 118.408 283.989 119.5C283.989 120.58 284.229 121.426 284.709 122.038C285.201 122.65 285.873 122.956 286.725 122.956C287.217 122.956 287.673 122.842 288.093 122.614C288.525 122.374 288.873 122.05 289.137 121.642L290.055 122.47C289.719 123.022 289.257 123.448 288.669 123.748C288.093 124.036 287.427 124.18 286.671 124.18ZM299.031 120.094H292.551C292.635 121.006 292.905 121.702 293.361 122.182C293.817 122.65 294.447 122.884 295.251 122.884C296.331 122.884 297.189 122.458 297.825 121.606L298.689 122.434C298.341 122.986 297.855 123.418 297.231 123.73C296.619 124.03 295.941 124.18 295.197 124.18C293.865 124.18 292.833 123.772 292.101 122.956C291.369 122.14 291.003 120.994 291.003 119.518C291.003 118.054 291.369 116.908 292.101 116.08C292.845 115.24 293.865 114.82 295.161 114.82C296.373 114.82 297.321 115.234 298.005 116.062C298.689 116.878 299.031 118.024 299.031 119.5V120.094ZM297.627 118.834C297.627 117.97 297.399 117.292 296.943 116.8C296.499 116.308 295.881 116.062 295.089 116.062C294.345 116.062 293.751 116.314 293.307 116.818C292.875 117.322 292.623 118.036 292.551 118.96H297.627V118.834Z" fill="black"/>
</svg>
